<svg xmlns="http://www.w3.org/2000/svg" version="1.1" xmlns:xlink="http://www.w3.org/1999/xlink" xmlns:svgjs="http://svgjs.dev/svgjs" width="1920" height="1080" preserveAspectRatio="none" viewBox="0 0 1920 1080"><g mask="url(&quot;#SvgjsMask1072&quot;)" fill="none"><rect width="1920" height="1080" x="0" y="0" fill="rgba(34, 34, 34, 1)"></rect><path d="M0,935.725C173.001,951.243,265.673,727.301,388.44,604.424C484.973,507.805,567.523,407.683,641.971,293.178C729.428,158.664,855.497,36.377,861.999,-123.937C868.873,-293.432,812.787,-484.639,677.677,-587.211C544.013,-688.685,354.534,-628.964,186.883,-636.466C60.862,-642.105,-61.52,-656.994,-183.738,-625.755C-309.476,-593.617,-426.253,-539.237,-524.639,-454.602C-634.903,-359.749,-736.079,-250.687,-780.679,-112.245C-829.882,40.485,-875.966,225.903,-786.855,359.345C-696.958,493.964,-476.684,442.877,-346.095,538.535C-201.5,644.453,-178.521,919.711,0,935.725" fill="#161616"></path><path d="M1920 1654.223C2049.545 1685.395 2200.439 1762.705 2310.241 1687.226 2420.752 1611.26 2394.625 1440.511 2421.902 1309.211 2443.1639999999998 1206.863 2451.091 1107.994 2452.29 1003.468 2453.717 879.043 2493.677 745.097 2429.594 638.434 2363.046 527.668 2237.669 452.36800000000005 2109.838 433.47299999999996 1987.221 415.34900000000005 1870.027 480.07000000000005 1761.342 539.66 1669.963 589.762 1608.539 672.383 1536.593 747.7760000000001 1460.52 827.495 1354.145 887.937 1327.0639999999999 994.749 1299.22 1104.569 1334.292 1223.52 1391.124 1321.53 1445.189 1414.769 1543.058 1467.186 1634.289 1524.575 1724.643 1581.413 1816.217 1629.25 1920 1654.223" fill="#2e2e2e"></path></g><defs><mask id="SvgjsMask1072"><rect width="1920" height="1080" fill="#ffffff"></rect></mask></defs></svg>